<?xml version="1.0" encoding="utf-8"?>
<!-- Generator: Adobe Illustrator 15.1.0, SVG Export Plug-In . SVG Version: 6.00 Build 0)  -->
<!DOCTYPE svg PUBLIC "-//W3C//DTD SVG 1.1//EN" "http://www.w3.org/Graphics/SVG/1.1/DTD/svg11.dtd">
<svg version="1.1" id="Layer_1" xmlns="http://www.w3.org/2000/svg" xmlns:xlink="http://www.w3.org/1999/xlink" x="0px" y="0px"
	 width="120.5px" height="128px" viewBox="0 0 120.5 128" style="enable-background:new 0 0 120.5 128;" xml:space="preserve">
    
    <defs>
        <style>
            .st0 {
                stroke-width: 1.25px;
            }
            #one {
                fill: #C04B2A;
                stroke: #C04B2A;
            }
            #two {
                fill: #D15932;
                stroke: #D15932;
            }
            #three {
                fill: #E16F35;
                stroke: #E16F35;
            }
            #four, #five {
                fill: #E48125;
                stroke: #E48125;
            }
            
            
            #Layer_1:hover #two {
                stroke: white;
                stroke-dasharray: 800;
                stroke-dashoffset: 0;
                -webkit-animation: dash 4s linear forwards;
                -moz-animation: dash 4s linear forwards;
            }
            
            #Layer_1:hover .st0 {
                stroke: white;
                stroke-dasharray: 800;
                stroke-dashoffset: 0;
                -webkit-animation: dash 8s linear forwards;
                -moz-animation: dash 8s linear forwards;
                fill: none;
                /*transition: .4s;*/
            }
            
            
            @-webkit-keyframes dash {
                from {
                    stroke-dashoffset: 800;
                }
                to {
                    stroke-dashoffset: 0;
                }
            }
        </style>
    </defs>
    
    
<style type="text/css">
<![CDATA[
	.st0{fill:white;stroke:#000000;stroke-miterlimit:10;}
]]>
</style>
    
    
    

    
    
    
    
<g>
	<g>
		<path id="two" class="st0" d="M41.2,64c0-12.1,9.6-21.9,21.8-21.9c0.9,0,1.7,0.1,2.6,0.2l16.7-15.4c-5.8-3-12.3-4.6-19.3-4.6
			c-17.9,0-33.1,11.1-39.2,26.7C22,53.6,21,58.7,21,64c0,5.2,1,10.3,2.8,14.9c0.2,0.5,0.4,0.899,0.5,1.3L41.2,64.6
			C41.3,64.4,41.2,64.2,41.2,64z"/>
		<path id="one" class="st0" d="M86.2,29.1L70.6,43.5c4.5,1.7,8.4,4.8,10.9,8.9c0,0,8.9-6.2,13.7-9.5c1.5-1,2.6-1.8,2.9-2
			c-0.9-1.3-1.9-2.6-2.9-3.8C92.7,34,89.6,31.3,86.2,29.1z"/>
		<path id="five" class="st0" d="M64.1,85.9L82,101.1C88.5,97.8,94,93,98.1,87L81.8,75.8C78.1,81.7,71.6,85.7,64.1,85.9z"/>
		<path id="three" class="st0" d="M52.1,82.9c-4.9-2.9-8.5-7.601-9.9-13.2L42,69.8L26.4,84.3c5.5,9.601,14.7,16.9,25.7,19.9V82.9L52.1,82.9z"/>
		<path id="four" class="st0" d="M56.3,105.1c2.2,0.301,4.4,0.5,6.7,0.5c5.2,0,10.1-0.899,14.7-2.6L56.3,84.8V105.1z"/>
	</g>
</g>
    
    
</svg>
