<svg id="Layer_1" data-name="Layer 1" xmlns="http://www.w3.org/2000/svg" viewBox="0 0 502.43 502.43"><defs><style>.cls-1{fill:#818181;}.cls-2{fill:#4e4e4e;}.cls-3{fill:#010101;}.cls-4{font-size:22.59px;fill:#fff;font-family:Gotham Book;}.cls-5,.cls-6,.cls-7{fill:none;stroke-miterlimit:10;stroke-width:28px;}.cls-5{stroke:#818181;}.cls-6{stroke:#4e4e4e;}.cls-7{stroke:#010101;}</style></defs><title>feedback_theory_project</title><path class="cls-1" d="M259.9,257.83c0.46,0.48,207.06-34.09,207.48-31.31a213.19,213.19,0,0,1,2.28,35.32c-2.12,116.93-98.64,210-215.57,207.88A210.79,210.79,0,0,1,131.64,428" transform="translate(-5.18 -5.18)"/><path class="cls-2" d="M259.66,257.82c-0.48.46-32.21-209.13-32-209.45a220,220,0,0,1,34.07-2.1c106.36,1.42,186.9,76.79,204.8,179.74C466,226,259.67,257.82,259.66,257.82Z" transform="translate(-5.18 -5.18)"/><path class="cls-3" d="M259.42,258.29S131.77,428.37,131.26,428C76.19,383,45,323.63,46.21,254.15,48.13,148.8,126.66,62.82,227.71,48.38,227.92,48.71,259.42,258.29,259.42,258.29Z" transform="translate(-5.18 -5.18)"/><text class="cls-4" transform="translate(143.01 157.91) rotate(-8.45)">Salient <tspan x="-78.12" y="27.11">eco-feedback </tspan><tspan x="-11" y="54.22">attracts </tspan><tspan x="-26.37" y="81.33">attention</tspan></text><text class="cls-4" transform="translate(255.48 141.45) rotate(-8.45)">Precise <tspan x="0" y="27.11">eco-feedback </tspan><tspan x="0" y="54.22">promotes </tspan><tspan x="0" y="81.33">learning</tspan></text><text class="cls-4" transform="translate(275.68 281.45) rotate(-8.45)">Meaningful <tspan x="0" y="27.11">eco-feedback </tspan><tspan x="0" y="54.22">creates </tspan><tspan x="0" y="81.33">motivation</tspan></text><path class="cls-5" d="M490.76,219.51a239,239,0,0,1,2.85,36.88c0,131-106.21,237.22-237.22,237.22a236.15,236.15,0,0,1-140-45.73" transform="translate(-5.18 -5.18)"/><path class="cls-6" d="M222.41,21.6a239.22,239.22,0,0,1,34-2.42C374.86,19.18,473,106,490.76,219.51" transform="translate(-5.18 -5.18)"/><path class="cls-7" d="M116.36,447.88A236.89,236.89,0,0,1,19.18,256.4c0-119.47,88.32-218.31,203.23-234.8" transform="translate(-5.18 -5.18)"/></svg>