<svg id="Layer_1" data-name="Layer 1" xmlns="http://www.w3.org/2000/svg" viewBox="0 0 327 326.96"><defs><style>.cls-1{fill:#f79226;}.cls-2{fill:#f27baa;}.cls-3{fill:#55a4db;}.cls-4{fill:#666766;}.cls-5{fill:#e6e6e6;}.cls-6{fill:#fff;}</style></defs><title>levels</title><path class="cls-1" d="M295.8,332.26A163.49,163.49,0,0,1,36.22,200q0-5,.3-10l163.18,10Z" transform="translate(-36.22 -36.52)"/><path class="cls-2" d="M199.69,200,36.52,190A163.49,163.49,0,0,1,300.68,71.43Z" transform="translate(-36.22 -36.52)"/><path class="cls-3" d="M199.69,200l101-128.6a163.53,163.53,0,0,1-4.9,260.85Z" transform="translate(-36.22 -36.52)"/><circle class="cls-4" cx="163.78" cy="163.48" r="115.01"/><circle class="cls-5" cx="163.78" cy="163.48" r="64.79"/><polygon class="cls-6" points="123.73 55.64 165.66 162.78 161.91 164.17 123.73 55.64"/><polygon class="cls-6" points="278.44 154.39 163.94 165.47 163.63 161.48 278.44 154.39"/><polygon class="cls-6" points="97.84 257.71 162.14 162.33 165.42 164.63 97.84 257.71"/><path class="cls-6" d="M222.77,105.85l4.85,1.41a6,6,0,0,1,1.82.85,4.23,4.23,0,0,1,1.18,1.25,3.83,3.83,0,0,1,.52,1.56,4.48,4.48,0,0,1-.17,1.76v0a4.33,4.33,0,0,1-.9,1.71,3.87,3.87,0,0,1-1.41,1,4.64,4.64,0,0,1-1.76.34,6.73,6.73,0,0,1-2-.28l-2-.58-1,3.56-2.61-.76Zm2.94,7.35a2.21,2.21,0,0,0,1.68-.07,1.77,1.77,0,0,0,.92-1.12v0a1.69,1.69,0,0,0-.18-1.51,2.51,2.51,0,0,0-1.42-.91l-2-.59-1.06,3.63Z" transform="translate(-36.22 -36.52)"/><path class="cls-6" d="M233.33,112.19l2.47,1.05-.75,1.75a4,4,0,0,1,1.63-1,2.71,2.71,0,0,1,2,.26l-1.1,2.58-.13-.06a2.77,2.77,0,0,0-2.26-.08,3.58,3.58,0,0,0-1.7,2L232.09,122l-2.47-1.05Z" transform="translate(-36.22 -36.52)"/><path class="cls-6" d="M239.81,125.82a5.39,5.39,0,0,1-1.57-1.23,4.57,4.57,0,0,1-.92-1.63,4.66,4.66,0,0,1-.19-1.85,5.11,5.11,0,0,1,.6-1.93l0,0a5.3,5.3,0,0,1,1.2-1.52,4.85,4.85,0,0,1,1.59-.94,4.49,4.49,0,0,1,3.66.3,4.61,4.61,0,0,1,1.61,1.33,4.17,4.17,0,0,1,.74,1.68,4.72,4.72,0,0,1,0,1.85,6.82,6.82,0,0,1-.66,1.84l-.17.29-.2.32-5.82-3.09a2.26,2.26,0,0,0,.06,1.6,2.41,2.41,0,0,0,1.12,1.12,3,3,0,0,0,1.17.36,4.08,4.08,0,0,0,1.32-.14l.72,1.92a4.76,4.76,0,0,1-2,.39A5,5,0,0,1,239.81,125.82Zm4.2-4.21a2.61,2.61,0,0,0,.12-1.59,1.76,1.76,0,0,0-.94-1.13,1.8,1.8,0,0,0-1.46-.16,2.75,2.75,0,0,0-1.29,1Z" transform="translate(-36.22 -36.52)"/><path class="cls-6" d="M248.4,131.1a5,5,0,0,1-1.4-1.44,4.85,4.85,0,0,1,.12-5.39l0,0a5,5,0,0,1,3.12-2.07,4.77,4.77,0,0,1,1.89,0A5.07,5.07,0,0,1,254,123a5.14,5.14,0,0,1,1.59,1.61,5,5,0,0,1,.62,1.84l-2.36.52a4.36,4.36,0,0,0-.35-1.16,2.38,2.38,0,0,0-.84-.92,2.07,2.07,0,0,0-.88-.36,2.28,2.28,0,0,0-.91,0,2.5,2.5,0,0,0-.86.41,2.91,2.91,0,0,0-.71.73l0,0a3.06,3.06,0,0,0-.44.94,2.46,2.46,0,0,0-.07,1,2.32,2.32,0,0,0,.31.89,2.35,2.35,0,0,0,.7.73,2.43,2.43,0,0,0,1.12.44,5,5,0,0,0,1.24,0l.39,2.2a6,6,0,0,1-2,.13A4.74,4.74,0,0,1,248.4,131.1Z" transform="translate(-36.22 -36.52)"/><path class="cls-6" d="M258.7,126.72l2.07,1.71-6,7.31L252.68,134Zm2.13-2.69,2.18,1.8-1.52,1.84-2.18-1.8Z" transform="translate(-36.22 -36.52)"/><path class="cls-6" d="M258.59,139.47a6.56,6.56,0,0,1-1.24-1.68,6.63,6.63,0,0,1-.69-2.17l2.05-.47a6.39,6.39,0,0,0,.52,1.68,4.16,4.16,0,0,0,.84,1.2,1.5,1.5,0,0,0,.75.46.6.6,0,0,0,.55-.18l0,0a.5.5,0,0,0,.14-.38,1.33,1.33,0,0,0-.12-.5,6.27,6.27,0,0,0-.3-.59l-.37-.68a10.16,10.16,0,0,1-.48-.94,3.55,3.55,0,0,1-.29-1,2.56,2.56,0,0,1,.08-1,2.43,2.43,0,0,1,.63-1l0,0a2.79,2.79,0,0,1,2.28-.9,3.17,3.17,0,0,1,1.19.34,4.59,4.59,0,0,1,1.11.8,6.09,6.09,0,0,1,1.11,1.48,6.75,6.75,0,0,1,.67,1.76l-2,.62a8.45,8.45,0,0,0-.54-1.42,3.58,3.58,0,0,0-.69-1,1.23,1.23,0,0,0-.66-.38.56.56,0,0,0-.5.17l0,0a.46.46,0,0,0-.12.36,1.81,1.81,0,0,0,.11.5,5.41,5.41,0,0,0,.26.61c.11.22.23.45.36.69s.32.63.46,1a4.15,4.15,0,0,1,.29,1,2.64,2.64,0,0,1-.06,1,2.18,2.18,0,0,1-.58,1l0,0a3.16,3.16,0,0,1-1.15.79,2.52,2.52,0,0,1-1.21.15,3.44,3.44,0,0,1-1.22-.4A5.22,5.22,0,0,1,258.59,139.47Z" transform="translate(-36.22 -36.52)"/><path class="cls-6" d="M264.9,146.36a5.39,5.39,0,0,1-1-1.74,4.55,4.55,0,0,1-.23-1.85,4.65,4.65,0,0,1,.53-1.78,5.13,5.13,0,0,1,1.29-1.56l0,0a5.3,5.3,0,0,1,1.69-1,4.85,4.85,0,0,1,1.82-.26,4.48,4.48,0,0,1,3.27,1.67,4.6,4.6,0,0,1,1,1.85,4.17,4.17,0,0,1,0,1.84,4.73,4.73,0,0,1-.72,1.7,6.73,6.73,0,0,1-1.31,1.45l-.26.21-.3.22L266.53,142a2.26,2.26,0,0,0-.55,1.51,2.41,2.41,0,0,0,.6,1.46,3,3,0,0,0,.95.78,4.09,4.09,0,0,0,1.27.37l-.06,2.05a4.77,4.77,0,0,1-2-.42A5,5,0,0,1,264.9,146.36Zm5.48-2.3a2.6,2.6,0,0,0,.71-1.42,1.75,1.75,0,0,0-.44-1.4,1.8,1.8,0,0,0-1.3-.7,2.74,2.74,0,0,0-1.56.41Z" transform="translate(-36.22 -36.52)"/><path class="cls-6" d="M202.32,284.57l2.92-.29,3.76,4.88,2.71-5.53,2.92-.29,1.24,12.3-2.67.27-.81-8-2.93,5.6h-.07l-4-4.86.8,8-2.67.27Z" transform="translate(-36.22 -36.52)"/><path class="cls-6" d="M223.8,294a5.4,5.4,0,0,1-2,.14,4.57,4.57,0,0,1-1.77-.59,4.67,4.67,0,0,1-1.38-1.25,5.13,5.13,0,0,1-.84-1.84v0a5.29,5.29,0,0,1-.13-1.93,4.84,4.84,0,0,1,.55-1.76,4.5,4.5,0,0,1,1.17-1.39,4.55,4.55,0,0,1,1.75-.84,4.63,4.63,0,0,1,2.09-.09,4.16,4.16,0,0,1,1.67.75,4.74,4.74,0,0,1,1.22,1.39,6.8,6.8,0,0,1,.74,1.81c0,.1,0,.21.07.33s0,.24.06.37l-6.39,1.61a2.26,2.26,0,0,0,1.12,1.15,2.4,2.4,0,0,0,1.58.09,3,3,0,0,0,1.11-.51,4.11,4.11,0,0,0,.88-1l1.82.95a4.76,4.76,0,0,1-1.26,1.65A5,5,0,0,1,223.8,294Zm.29-5.94a2.61,2.61,0,0,0-1-1.26,1.75,1.75,0,0,0-1.46-.21,1.8,1.8,0,0,0-1.19.86,2.74,2.74,0,0,0-.3,1.59Z" transform="translate(-36.22 -36.52)"/><path class="cls-6" d="M233.12,291.08a4.17,4.17,0,0,1-1.25.28,3,3,0,0,1-1.16-.15,2.66,2.66,0,0,1-1-.6,2.85,2.85,0,0,1-.68-1.07v0a3,3,0,0,1-.21-1.36,2.58,2.58,0,0,1,.4-1.15,3.52,3.52,0,0,1,.92-.95,6,6,0,0,1,1.38-.72,6.52,6.52,0,0,1,1.22-.35,8,8,0,0,1,1.08-.11l-.06-.15a1.61,1.61,0,0,0-.94-1,2.28,2.28,0,0,0-1.58.13,6.3,6.3,0,0,0-1.23.61,9.19,9.19,0,0,0-1,.8l-1.36-1.68a10.6,10.6,0,0,1,1.32-1.09,8.5,8.5,0,0,1,1.84-.93,5.8,5.8,0,0,1,1.87-.42,3.38,3.38,0,0,1,1.49.27,3.19,3.19,0,0,1,1.19.94,5.63,5.63,0,0,1,.84,1.52l2,5.13-2.43.92-.36-1a3.74,3.74,0,0,1-.79,1.24A3.9,3.9,0,0,1,233.12,291.08Zm.1-2a2.37,2.37,0,0,0,1.26-1,1.46,1.46,0,0,0,.11-1.33l-.17-.45a4.15,4.15,0,0,0-.83,0,4.33,4.33,0,0,0-.9.24,2.4,2.4,0,0,0-1.15.8,1.1,1.1,0,0,0-.12,1.08v0a1,1,0,0,0,.68.65A1.75,1.75,0,0,0,233.21,289.06Z" transform="translate(-36.22 -36.52)"/><path class="cls-6" d="M236.58,279.33l2.38-1.25.63,1.2a5.61,5.61,0,0,1,.18-.75,3.45,3.45,0,0,1,.31-.72,3,3,0,0,1,.5-.64,3.14,3.14,0,0,1,.76-.54,3,3,0,0,1,2.54-.27,3.74,3.74,0,0,1,1.94,1.9l2.84,5.43-2.38,1.25-2.45-4.67a2.12,2.12,0,0,0-1-1.08,1.51,1.51,0,0,0-1.29.13,1.59,1.59,0,0,0-.86,1,2,2,0,0,0,.27,1.48l2.45,4.67L241,287.72Z" transform="translate(-36.22 -36.52)"/><path class="cls-6" d="M244.13,271.26l2.38-1.53,1.29,2-2.38,1.53Zm1.92,2.84,2.26-1.45,5.13,8-2.26,1.46Z" transform="translate(-36.22 -36.52)"/><path class="cls-6" d="M250.21,271.46l2.12-1.65.83,1.07a5.94,5.94,0,0,1,0-.76,3.42,3.42,0,0,1,.18-.76,3.06,3.06,0,0,1,.38-.72,3.12,3.12,0,0,1,.65-.66,3,3,0,0,1,2.45-.72,3.72,3.72,0,0,1,2.25,1.52l3.77,4.84-2.12,1.65-3.24-4.16a2.12,2.12,0,0,0-1.22-.87,1.51,1.51,0,0,0-1.25.35,1.6,1.6,0,0,0-.67,1.14,2,2,0,0,0,.53,1.41l3.24,4.16L256,278.93Z" transform="translate(-36.22 -36.52)"/><path class="cls-6" d="M270.24,270.57a9.46,9.46,0,0,1-1.75,1.4,8.3,8.3,0,0,1-1.9.87l-.78-2.07a7.89,7.89,0,0,0,1.5-.61,5.81,5.81,0,0,0,1.37-1,2.8,2.8,0,0,0,1-1.91,2.59,2.59,0,0,0-.9-1.83l-.33-.32a4.85,4.85,0,0,1-.12,1.72,3.54,3.54,0,0,1-1,1.55,4.41,4.41,0,0,1-1.33.92,3.94,3.94,0,0,1-1.55.35,4.13,4.13,0,0,1-1.64-.32,4.83,4.83,0,0,1-1.58-1.08l0,0a4.74,4.74,0,0,1-1.08-1.58,4.25,4.25,0,0,1-.32-1.64,3.92,3.92,0,0,1,.34-1.56,4.35,4.35,0,0,1,.9-1.32,3.6,3.6,0,0,1,1.56-1,5.26,5.26,0,0,1,1.6-.18l-.88-.87,1.89-1.9,5.2,5.17a5.08,5.08,0,0,1,1.79,3.48,3.9,3.9,0,0,1-.5,1.88A8.55,8.55,0,0,1,270.24,270.57Zm-3.93-4.36a2.61,2.61,0,0,0,.54-.76,2.17,2.17,0,0,0,.2-.84,2.1,2.1,0,0,0-.15-.84,2.22,2.22,0,0,0-.5-.75l0,0a2.19,2.19,0,0,0-.75-.5,2.1,2.1,0,0,0-.84-.15,2.17,2.17,0,0,0-.84.2,2.58,2.58,0,0,0-.76.54,2.49,2.49,0,0,0-.53.76,2.14,2.14,0,0,0-.19.83,2.09,2.09,0,0,0,.15.84,2.19,2.19,0,0,0,.5.75l0,0a2.05,2.05,0,0,0,1.59.66A2.34,2.34,0,0,0,266.31,266.21Z" transform="translate(-36.22 -36.52)"/><path class="cls-6" d="M268.59,257.58l-.7.87-1.72-1.39.7-.87-.47-.38a3.12,3.12,0,0,1-1.31-2,2.94,2.94,0,0,1,.79-2.16,7.4,7.4,0,0,1,.74-.8,5.23,5.23,0,0,1,.67-.52l1.73,1.4a5,5,0,0,0-.5.35,3,3,0,0,0-.45.46.88.88,0,0,0,.19,1.4l.29.23,1.37-1.69,1.7,1.38-1.34,1.66,5.58,4.51-1.69,2.09Z" transform="translate(-36.22 -36.52)"/><path class="cls-6" d="M280.35,254.16a3,3,0,0,1-2.09,1.47,3.72,3.72,0,0,1-2.62-.71l-5.12-3.37L272,249.3l4.4,2.89a2.13,2.13,0,0,0,1.43.43,1.51,1.51,0,0,0,1.07-.74,1.6,1.6,0,0,0,.27-1.29,2,2,0,0,0-1-1.16l-4.4-2.89,1.48-2.25,7.91,5.2-1.47,2.24-1.13-.74a5.72,5.72,0,0,1,.21.74,3.5,3.5,0,0,1,.07.78,3,3,0,0,1-.12.81A3.13,3.13,0,0,1,280.35,254.16Z" transform="translate(-36.22 -36.52)"/><path class="cls-6" d="M273.28,240.71l1.27-2.37,11.38,6.08-1.27,2.37Z" transform="translate(-36.22 -36.52)"/><path class="cls-6" d="M116.48,211a8.19,8.19,0,0,1-.11,2.81,7.33,7.33,0,0,1-1.15,2.65l-2.12-1.34a8.11,8.11,0,0,0,.85-1.87,4.66,4.66,0,0,0,.14-2,2.38,2.38,0,0,0-.48-1.26,1,1,0,0,0-.91-.35h0a1.06,1.06,0,0,0-.45.16,1,1,0,0,0-.33.42,3.94,3.94,0,0,0-.25.8q-.11.51-.2,1.3a15.35,15.35,0,0,1-.28,1.75,4.78,4.78,0,0,1-.52,1.37,2.8,2.8,0,0,1-.92,1,3.6,3.6,0,0,1-1.48.5h0a3.57,3.57,0,0,1-1.56-.11,3.47,3.47,0,0,1-1.28-.72,4,4,0,0,1-.93-1.25,5.5,5.5,0,0,1-.49-1.7,7.43,7.43,0,0,1,.07-2.53,7.27,7.27,0,0,1,.88-2.23l2.22,1.13a8.89,8.89,0,0,0-.67,1.73,4.16,4.16,0,0,0-.11,1.62,1.94,1.94,0,0,0,.46,1.14.94.94,0,0,0,.82.29h0a1.11,1.11,0,0,0,.5-.18,1,1,0,0,0,.34-.46,4,4,0,0,0,.22-.86q.09-.54.19-1.36a12.68,12.68,0,0,1,.33-1.73,4.69,4.69,0,0,1,.57-1.33,2.84,2.84,0,0,1,.91-.89,3.45,3.45,0,0,1,1.35-.44h0a3.83,3.83,0,0,1,1.66.11,3.35,3.35,0,0,1,1.31.76,4.21,4.21,0,0,1,.92,1.31A6.21,6.21,0,0,1,116.48,211Z" transform="translate(-36.22 -36.52)"/><path class="cls-6" d="M115.79,202.56a4.21,4.21,0,0,1-.17,1.27,3,3,0,0,1-.54,1,2.68,2.68,0,0,1-.9.71,2.89,2.89,0,0,1-1.24.27h0a3,3,0,0,1-1.35-.27,2.57,2.57,0,0,1-.95-.78,3.52,3.52,0,0,1-.57-1.2,6,6,0,0,1-.2-1.54,6.59,6.59,0,0,1,.09-1.26,8.05,8.05,0,0,1,.27-1.06H110a1.61,1.61,0,0,0-1.28.53,2.27,2.27,0,0,0-.43,1.52,6.3,6.3,0,0,0,.15,1.37,9.11,9.11,0,0,0,.39,1.24l-2,.69a10.52,10.52,0,0,1-.56-1.62,8.55,8.55,0,0,1-.23-2,5.79,5.79,0,0,1,.25-1.9,3.38,3.38,0,0,1,.77-1.31,3.18,3.18,0,0,1,1.29-.79,5.62,5.62,0,0,1,1.72-.27l5.49-.06,0,2.6h-1a3.72,3.72,0,0,1,.89,1.17A3.91,3.91,0,0,1,115.79,202.56Zm-1.86-.79a2.37,2.37,0,0,0-.48-1.52,1.46,1.46,0,0,0-1.21-.56h-.48a4.13,4.13,0,0,0-.25.79,4.28,4.28,0,0,0-.09.93,2.4,2.4,0,0,0,.35,1.36,1.1,1.1,0,0,0,1,.49h0a1,1,0,0,0,.84-.42A1.74,1.74,0,0,0,113.92,201.76Z" transform="translate(-36.22 -36.52)"/><path class="cls-6" d="M102.84,194.24l.19-2.68,12.86.93-.19,2.68Z" transform="translate(-36.22 -36.52)"/><path class="cls-6" d="M103.34,188.6l.37-2.8,2.36.31-.37,2.8Zm3.41.38.35-2.66,9.39,1.24-.35,2.66Z" transform="translate(-36.22 -36.52)"/><path class="cls-6" d="M117.89,181.27a5.38,5.38,0,0,1-.78,1.84,4.55,4.55,0,0,1-1.33,1.31,4.65,4.65,0,0,1-1.73.67,5.13,5.13,0,0,1-2-.07h0a5.29,5.29,0,0,1-1.79-.75,4.87,4.87,0,0,1-1.32-1.28,4.49,4.49,0,0,1-.68-3.61,4.6,4.6,0,0,1,.86-1.91,4.17,4.17,0,0,1,1.43-1.16,4.72,4.72,0,0,1,1.79-.47,6.82,6.82,0,0,1,1.95.16l.33.08.36.11-1.44,6.43a2.26,2.26,0,0,0,1.53-.48,2.41,2.41,0,0,0,.79-1.37,3,3,0,0,0,0-1.22,4.09,4.09,0,0,0-.48-1.23l1.66-1.2a4.75,4.75,0,0,1,.91,1.87A5,5,0,0,1,117.89,181.27Zm-5.17-2.93a2.62,2.62,0,0,0-1.56.3,1.76,1.76,0,0,0-.84,1.21,1.8,1.8,0,0,0,.24,1.46,2.73,2.73,0,0,0,1.28,1Z" transform="translate(-36.22 -36.52)"/><path class="cls-6" d="M110.08,172.6l.9-2.53,1.28.45a5.62,5.62,0,0,1-.38-.67,3.53,3.53,0,0,1-.26-.74,3,3,0,0,1-.07-.81,3.15,3.15,0,0,1,.19-.91,3,3,0,0,1,1.68-1.92,3.73,3.73,0,0,1,2.71.08l5.78,2.06-.9,2.53-5-1.77a2.12,2.12,0,0,0-1.5-.08,1.51,1.51,0,0,0-.86,1,1.59,1.59,0,0,0,0,1.32,2,2,0,0,0,1.2.91l5,1.77-.9,2.53Z" transform="translate(-36.22 -36.52)"/><path class="cls-6" d="M124.18,163.23a4.41,4.41,0,0,1-.6,1,2,2,0,0,1-.79.58,2.25,2.25,0,0,1-1,.14,4,4,0,0,1-1.32-.41l-4.05-1.93-.49,1-2.07-1,.49-1-2.19-1,1.15-2.42,2.19,1,1-2,2.07,1-1,2,3.67,1.74a.79.79,0,0,0,1.2-.38,2.63,2.63,0,0,0,.25-1.35l1.95.93a4.2,4.2,0,0,1,0,1A4.26,4.26,0,0,1,124.18,163.23Z" transform="translate(-36.22 -36.52)"/><path d="M202.53,140.09l2.3.24L204,148.7l5.21.55-.22,2.07-7.5-.79Z" transform="translate(-36.22 -36.52)"/><path d="M213.19,152.68a4.59,4.59,0,0,1-1.53-.74,3.85,3.85,0,0,1-1.06-1.18,3.91,3.91,0,0,1-.49-1.5,4.33,4.33,0,0,1,.15-1.71v0A4.52,4.52,0,0,1,211,146a4.1,4.1,0,0,1,1.15-1.07,3.83,3.83,0,0,1,1.45-.53,3.87,3.87,0,0,1,1.64.11,3.93,3.93,0,0,1,1.58.81,3.55,3.55,0,0,1,.92,1.26,4.05,4.05,0,0,1,.32,1.54,5.79,5.79,0,0,1-.22,1.64c0,.09-.05.18-.08.27l-.11.3-5.39-1.5a1.92,1.92,0,0,0,.34,1.32,2,2,0,0,0,1.13.73,2.53,2.53,0,0,0,1,.09,3.5,3.5,0,0,0,1.07-.36l.95,1.46a4,4,0,0,1-1.62.69A4.28,4.28,0,0,1,213.19,152.68Zm2.71-4.26a2.22,2.22,0,0,0-.19-1.34,1.49,1.49,0,0,0-1-.76,1.53,1.53,0,0,0-1.24.14,2.33,2.33,0,0,0-.89,1Z" transform="translate(-36.22 -36.52)"/><path d="M219.58,154.93a3.52,3.52,0,0,1-.9-.6,2.5,2.5,0,0,1-.6-.8,2.26,2.26,0,0,1-.21-1,2.4,2.4,0,0,1,.25-1v0a2.53,2.53,0,0,1,.7-.93,2.19,2.19,0,0,1,.94-.44,3,3,0,0,1,1.13,0,5.11,5.11,0,0,1,1.26.41,5.65,5.65,0,0,1,.93.54,7,7,0,0,1,.71.6l.06-.12a1.36,1.36,0,0,0,.07-1.18,1.93,1.93,0,0,0-1-.89,5.4,5.4,0,0,0-1.1-.39,7.93,7.93,0,0,0-1.09-.16l.22-1.82a9,9,0,0,1,1.45.16,7.27,7.27,0,0,1,1.65.57,4.91,4.91,0,0,1,1.36.89,2.85,2.85,0,0,1,.72,1.07,2.7,2.7,0,0,1,.13,1.28,4.74,4.74,0,0,1-.43,1.41l-2,4.23-2-.93.37-.79a3.16,3.16,0,0,1-1.22.25A3.31,3.31,0,0,1,219.58,154.93Zm1.29-1.13a2,2,0,0,0,1.34.2,1.24,1.24,0,0,0,.87-.72l.17-.37a3.49,3.49,0,0,0-.51-.48,3.59,3.59,0,0,0-.68-.41,2,2,0,0,0-1.17-.23.94.94,0,0,0-.73.57v0a.84.84,0,0,0,0,.8A1.48,1.48,0,0,0,220.87,153.8Z" transform="translate(-36.22 -36.52)"/><path d="M229.25,150.69l1.91,1.24-.88,1.36a3.34,3.34,0,0,1,1.51-.59,2.29,2.29,0,0,1,1.6.51l-1.3,2-.1-.07a2.35,2.35,0,0,0-1.88-.4,3,3,0,0,0-1.72,1.44l-1.62,2.49-1.91-1.24Z" transform="translate(-36.22 -36.52)"/><path d="M234.82,154.39l1.71,1.5-.76.86a4.84,4.84,0,0,1,.65-.09,3,3,0,0,1,.66,0,2.57,2.57,0,0,1,.66.2,2.64,2.64,0,0,1,.66.43,2.57,2.57,0,0,1,1,1.93,3.16,3.16,0,0,1-.91,2.12l-3.43,3.91-1.71-1.5,2.95-3.36a1.81,1.81,0,0,0,.53-1.15,1.28,1.28,0,0,0-.5-1,1.35,1.35,0,0,0-1.05-.38,1.73,1.73,0,0,0-1.09.66l-2.95,3.36-1.71-1.5Z" transform="translate(-36.22 -36.52)"/><path d="M242,161.09l1.51,1.71-6,5.33L236,166.42Zm2.14-2,1.59,1.8-1.52,1.34-1.59-1.8Z" transform="translate(-36.22 -36.52)"/><path d="M245.14,164.67l1.29,1.88-.95.65a4.8,4.8,0,0,1,.65.08,3,3,0,0,1,.63.19,2.56,2.56,0,0,1,.59.36,2.66,2.66,0,0,1,.53.58,2.57,2.57,0,0,1,.48,2.11,3.17,3.17,0,0,1-1.41,1.82l-4.3,2.93-1.29-1.88,3.7-2.52a1.81,1.81,0,0,0,.8-1,1.28,1.28,0,0,0-.24-1.07,1.36,1.36,0,0,0-.93-.63,1.73,1.73,0,0,0-1.22.37l-3.7,2.52-1.28-1.88Z" transform="translate(-36.22 -36.52)"/><path d="M242.45,180.48a8,8,0,0,1-.57-1.81,7.13,7.13,0,0,1-.11-1.77h1.88a6.86,6.86,0,0,0,0,1.38,5,5,0,0,0,.42,1.4A2.37,2.37,0,0,0,245.3,181a2.2,2.2,0,0,0,1.72-.16l.36-.16a4.11,4.11,0,0,1-1.33-.62,3,3,0,0,1-.93-1.24,3.72,3.72,0,0,1-.33-1.33,3.33,3.33,0,0,1,.2-1.34,3.52,3.52,0,0,1,.75-1.2,4.1,4.1,0,0,1,1.34-.92h0a4,4,0,0,1,1.58-.38,3.6,3.6,0,0,1,1.4.24,3.36,3.36,0,0,1,1.13.74,3.73,3.73,0,0,1,.77,1.12,3,3,0,0,1,.31,1.54,4.38,4.38,0,0,1-.34,1.32l1-.43.93,2.08-5.68,2.55a4.32,4.32,0,0,1-3.31.36,3.3,3.3,0,0,1-1.34-1A7.21,7.21,0,0,1,242.45,180.48Zm4.66-1.79a2.17,2.17,0,0,0,.44.66,1.85,1.85,0,0,0,.6.41,1.79,1.79,0,0,0,.71.13,1.85,1.85,0,0,0,.75-.17h0a1.87,1.87,0,0,0,.62-.44,1.8,1.8,0,0,0,.37-.62,1.85,1.85,0,0,0,.09-.73,2.18,2.18,0,0,0-.2-.77,2.11,2.11,0,0,0-.44-.65,1.86,1.86,0,0,0-.6-.4,1.77,1.77,0,0,0-.71-.13,1.87,1.87,0,0,0-.75.17h0a1.75,1.75,0,0,0-1,1.06A2,2,0,0,0,247.1,178.69Z" transform="translate(-36.22 -36.52)"/><path d="M191.44,249.09l2.49.15,2.49,4.6,3-4.27,2.48.15-.63,10.48-2.28-.14.41-6.84-3.22,4.3h-.06l-2.65-4.61-.41,6.8-2.28-.14Z" transform="translate(-36.22 -36.52)"/><path d="M208.62,259.5a4.52,4.52,0,0,1-1.75-.06,4.2,4.2,0,0,1-1.49-.67,4.11,4.11,0,0,1-1.1-1.17,4,4,0,0,1-.57-1.56v0a4,4,0,0,1,.08-1.66,4.19,4.19,0,0,1,.71-1.45,4.35,4.35,0,0,1,1.23-1.1,4.76,4.76,0,0,1,3.42-.53,4.23,4.23,0,0,1,1.49.67,4.13,4.13,0,0,1,1.1,1.17,4,4,0,0,1,.57,1.56v0a4,4,0,0,1-.08,1.66,4.15,4.15,0,0,1-.71,1.45,4.32,4.32,0,0,1-1.23,1.1A4.5,4.5,0,0,1,208.62,259.5Zm-.27-1.95a2.12,2.12,0,0,0,.84-.3,2,2,0,0,0,.57-.57,2.12,2.12,0,0,0,.3-.75,2.48,2.48,0,0,0,0-.86v0a2.38,2.38,0,0,0-.28-.82,2.13,2.13,0,0,0-1.28-1,2,2,0,0,0-.87,0,2.11,2.11,0,0,0-.84.3,1.94,1.94,0,0,0-.57.56,2.09,2.09,0,0,0-.3.75,2.48,2.48,0,0,0,0,.86v0a2.36,2.36,0,0,0,.28.81,2.13,2.13,0,0,0,.54.63,2.15,2.15,0,0,0,.73.38A2,2,0,0,0,208.36,257.55Z" transform="translate(-36.22 -36.52)"/><path d="M217.86,257.29a3.75,3.75,0,0,1-.94.17,1.71,1.71,0,0,1-.82-.17,1.88,1.88,0,0,1-.68-.57,3.31,3.31,0,0,1-.51-1.06L213.79,252l-.92.28-.57-1.86.92-.28-.6-2,2.18-.67.6,2,1.81-.56.57,1.86-1.81.56,1,3.29a.67.67,0,0,0,.93.53,2.22,2.22,0,0,0,1-.62l.54,1.75a3.56,3.56,0,0,1-.66.56A3.61,3.61,0,0,1,217.86,257.29Z" transform="translate(-36.22 -36.52)"/><path d="M217.43,245.71l2.21-.93.78,1.87-2.21.93Zm1.18,2.66,2.1-.88,3.1,7.42-2.1.88Z" transform="translate(-36.22 -36.52)"/><path d="M221.77,247.17l2.1-1.2,4.23,3.78L227,244.18l2.06-1.18,1.27,8.6-1.8,1Z" transform="translate(-36.22 -36.52)"/><path d="M236.7,247.37a3.57,3.57,0,0,1-.93.55,2.52,2.52,0,0,1-1,.19,2.27,2.27,0,0,1-.95-.23,2.44,2.44,0,0,1-.84-.68l0,0a2.51,2.51,0,0,1-.53-1,2.2,2.2,0,0,1,0-1,3,3,0,0,1,.49-1,5.16,5.16,0,0,1,.92-1,5.71,5.71,0,0,1,.89-.61,7,7,0,0,1,.84-.38l-.08-.1a1.37,1.37,0,0,0-1-.58,1.93,1.93,0,0,0-1.24.52,5.34,5.34,0,0,0-.83.82,7.88,7.88,0,0,0-.62.92l-1.54-1a9,9,0,0,1,.78-1.23,7.22,7.22,0,0,1,1.24-1.24,4.88,4.88,0,0,1,1.4-.84,2.86,2.86,0,0,1,1.28-.18,2.7,2.7,0,0,1,1.21.44,4.76,4.76,0,0,1,1.08,1l2.94,3.62-1.71,1.39-.55-.67a3.15,3.15,0,0,1-.31,1.21A3.31,3.31,0,0,1,236.7,247.37Zm-.46-1.66a2,2,0,0,0,.76-1.12,1.24,1.24,0,0,0-.26-1.1l-.26-.31a3.42,3.42,0,0,0-.65.25,3.6,3.6,0,0,0-.66.43,2,2,0,0,0-.72.95.93.93,0,0,0,.19.9l0,0a.84.84,0,0,0,.72.34A1.48,1.48,0,0,0,236.24,245.72Z" transform="translate(-36.22 -36.52)"/><path d="M244.06,240.53a3.7,3.7,0,0,1-.73.62,1.69,1.69,0,0,1-.79.27,1.91,1.91,0,0,1-.87-.16,3.34,3.34,0,0,1-1-.67l-2.79-2.6-.65.7-1.43-1.33.65-.7-1.5-1.4,1.55-1.67L238,235l1.29-1.38,1.43,1.33-1.29,1.38,2.52,2.35a.67.67,0,0,0,1.07,0,2.24,2.24,0,0,0,.55-1l1.34,1.25a3.42,3.42,0,0,1-.89,1.63Z" transform="translate(-36.22 -36.52)"/><path d="M237.9,230.7l1.45-1.91L241,230l-1.45,1.91Zm2.35,1.72,1.38-1.81,6.4,4.87-1.38,1.81Z" transform="translate(-36.22 -36.52)"/><path d="M251.85,229.88a4.55,4.55,0,0,1-1.13,1.34,4.2,4.2,0,0,1-1.45.75,4.1,4.1,0,0,1-1.6.13,4,4,0,0,1-1.58-.52h0a4,4,0,0,1-1.25-1.09,4.13,4.13,0,0,1-.7-1.45,4.32,4.32,0,0,1-.1-1.64,4.51,4.51,0,0,1,.57-1.67,4.57,4.57,0,0,1,1.13-1.34,4.27,4.27,0,0,1,1.45-.75,4.15,4.15,0,0,1,1.6-.13,4,4,0,0,1,1.58.52h0a4,4,0,0,1,1.25,1.09,4.13,4.13,0,0,1,.7,1.45,4.32,4.32,0,0,1,.1,1.64A4.5,4.5,0,0,1,251.85,229.88Zm-1.69-1a2.12,2.12,0,0,0,.29-.85,2,2,0,0,0-.09-.8,2.08,2.08,0,0,0-.4-.7,2.46,2.46,0,0,0-.67-.54l0,0a2.38,2.38,0,0,0-.81-.29,2.16,2.16,0,0,0-.83,0,2.13,2.13,0,0,0-.76.35,2,2,0,0,0-.58.65,2.1,2.1,0,0,0-.28.85,1.93,1.93,0,0,0,.09.8,2.06,2.06,0,0,0,.4.7,2.51,2.51,0,0,0,.67.54h0a2.4,2.4,0,0,0,.81.29,2.13,2.13,0,0,0,.83,0,2.15,2.15,0,0,0,.75-.34A2,2,0,0,0,250.16,228.88Z" transform="translate(-36.22 -36.52)"/><path d="M247.31,220.91l.77-2.15,1.08.39a4.77,4.77,0,0,1-.32-.57,3,3,0,0,1-.22-.63,2.62,2.62,0,0,1-.06-.69,2.72,2.72,0,0,1,.16-.77,2.57,2.57,0,0,1,1.43-1.63,3.16,3.16,0,0,1,2.3.07l4.9,1.75-.77,2.15-4.21-1.51a1.8,1.8,0,0,0-1.27-.07,1.28,1.28,0,0,0-.73.82,1.35,1.35,0,0,0,0,1.12,1.73,1.73,0,0,0,1,.77l4.21,1.5-.77,2.15Z" transform="translate(-36.22 -36.52)"/><path d="M147.47,229.64l-1-1.87,7.15-9,1.15,2.12-1.61,2,2.12,3.9,2.53-.28,1.12,2.07Zm4.27-5.08-2.33,2.85,3.66-.4Z" transform="translate(-36.22 -36.52)"/><path d="M152.88,215.56a3.71,3.71,0,0,1,.21.94,1.69,1.69,0,0,1-.13.82,1.9,1.9,0,0,1-.54.7,3.34,3.34,0,0,1-1,.54l-3.6,1.25.31.91-1.84.64-.32-.91-1.94.67-.75-2.15,1.94-.67-.62-1.79,1.84-.64.62,1.79,3.26-1.13a.67.67,0,0,0,.5-1,2.21,2.21,0,0,0-.65-1l1.73-.6a3.43,3.43,0,0,1,1,1.55Z" transform="translate(-36.22 -36.52)"/><path d="M151.41,210.15a3.72,3.72,0,0,1,.1,1,1.7,1.7,0,0,1-.23.8,1.9,1.9,0,0,1-.62.63,3.33,3.33,0,0,1-1.1.42l-3.72.83.21.94-1.9.42-.21-.94-2,.45-.5-2.23,2-.45-.41-1.84,1.9-.43.41,1.85,3.36-.75a.67.67,0,0,0,.6-.89,2.22,2.22,0,0,0-.54-1l1.79-.4a3.41,3.41,0,0,1,.85,1.66Z" transform="translate(-36.22 -36.52)"/><path d="M150.55,203.66a4.6,4.6,0,0,1-.17,1.69,3.87,3.87,0,0,1-.75,1.4,4,4,0,0,1-1.24,1,4.37,4.37,0,0,1-1.66.45h0a4.52,4.52,0,0,1-1.64-.17,4.11,4.11,0,0,1-1.39-.71,3.8,3.8,0,0,1-1.45-2.76,3.92,3.92,0,0,1,.22-1.76,3.55,3.55,0,0,1,.87-1.29,4,4,0,0,1,1.33-.83,5.75,5.75,0,0,1,1.62-.36l.29,0h.32l.44,5.58a1.92,1.92,0,0,0,1.12-.77,2,2,0,0,0,.3-1.31,2.53,2.53,0,0,0-.27-1,3.47,3.47,0,0,0-.7-.88l1-1.39a4,4,0,0,1,1.21,1.29A4.32,4.32,0,0,1,150.55,203.66Zm-4.93-1.09a2.22,2.22,0,0,0-1.19.64,1.49,1.49,0,0,0-.38,1.19,1.54,1.54,0,0,0,.55,1.12,2.33,2.33,0,0,0,1.29.48Z" transform="translate(-36.22 -36.52)"/><path d="M142.1,198.46l.21-2.27,1.14.11a5,5,0,0,1-.45-.47,3,3,0,0,1-.37-.55,2.54,2.54,0,0,1-.23-.65,2.64,2.64,0,0,1,0-.79,2.57,2.57,0,0,1,1-1.94,3.16,3.16,0,0,1,2.25-.51l5.18.48-.21,2.27-4.46-.41a1.8,1.8,0,0,0-1.25.25,1.28,1.28,0,0,0-.5,1,1.35,1.35,0,0,0,.31,1.08,1.73,1.73,0,0,0,1.18.49l4.46.41-.21,2.27Z" transform="translate(-36.22 -36.52)"/><path d="M151.86,188a3.79,3.79,0,0,1-.33.9,1.7,1.7,0,0,1-.56.62,1.9,1.9,0,0,1-.83.29,3.32,3.32,0,0,1-1.17-.1l-3.71-.88-.22.93-1.9-.45.22-.93-2-.48.53-2.22,2,.48.44-1.84,1.9.45-.44,1.84,3.35.8a.67.67,0,0,0,.93-.53,2.23,2.23,0,0,0,0-1.16l1.78.42a3.49,3.49,0,0,1,.14.85A3.58,3.58,0,0,1,151.86,188Z" transform="translate(-36.22 -36.52)"/><path d="M142.2,181.5l.78-2.27,1.92.66-.78,2.27Zm2.77.89.74-2.16,7.6,2.62-.74,2.16Z" transform="translate(-36.22 -36.52)"/><path d="M155.63,178a4.53,4.53,0,0,1-1.06,1.4,4.19,4.19,0,0,1-1.41.83,4.11,4.11,0,0,1-1.58.22A4,4,0,0,1,150,180h0a4,4,0,0,1-1.31-1,4.16,4.16,0,0,1-.78-1.41,4.37,4.37,0,0,1-.19-1.64,4.48,4.48,0,0,1,.48-1.7,4.54,4.54,0,0,1,1.06-1.4,4.22,4.22,0,0,1,1.41-.83,4.12,4.12,0,0,1,1.59-.22,4,4,0,0,1,1.6.43h0a4,4,0,0,1,1.31,1,4.15,4.15,0,0,1,.78,1.41,4.35,4.35,0,0,1,.19,1.64A4.49,4.49,0,0,1,155.63,178Zm-1.74-.9a2.13,2.13,0,0,0,.24-.86,2,2,0,0,0-.13-.79,2.07,2.07,0,0,0-.44-.68,2.49,2.49,0,0,0-.69-.51h0A2.4,2.4,0,0,0,152,174a2.16,2.16,0,0,0-.83.07,2.13,2.13,0,0,0-.74.39,2,2,0,0,0-.54.68,2.13,2.13,0,0,0-.24.86,2,2,0,0,0,.13.79,2.09,2.09,0,0,0,.44.68,2.5,2.5,0,0,0,.7.51h0a2.38,2.38,0,0,0,.83.24,2.15,2.15,0,0,0,1.56-.45A2,2,0,0,0,153.88,177.09Z" transform="translate(-36.22 -36.52)"/><path d="M151.4,168.62l1.36-1.83.92.69a4.86,4.86,0,0,1-.14-.64,3,3,0,0,1,0-.66,2.52,2.52,0,0,1,.15-.68,2.61,2.61,0,0,1,.38-.69,2.57,2.57,0,0,1,1.84-1.14,3.16,3.16,0,0,1,2.18.73l4.18,3.1-1.36,1.83-3.59-2.67a1.81,1.81,0,0,0-1.19-.44,1.29,1.29,0,0,0-.94.57,1.36,1.36,0,0,0-.29,1.08,1.74,1.74,0,0,0,.75,1l3.59,2.67-1.36,1.83Z" transform="translate(-36.22 -36.52)"/><path class="cls-6" d="M308.56,104.18l2.66,3.1-14.1,12.1-2.66-3.1Z" transform="translate(-36.22 -36.52)"/><path class="cls-6" d="M314.94,111.58l2.13,3.11-4.53,13.64,9.44-6.46,2.28,3.33-15.34,10.49-2-2.87,4.67-14.09-9.75,6.67-2.28-3.33Z" transform="translate(-36.22 -36.52)"/><path class="cls-6" d="M327.08,130.25l6.29,12.67-3.3,1.64-4.47-9L322,137.33l3.94,7.94-3.3,1.64L318.69,139l-6.44,3.2-1.82-3.66Z" transform="translate(-36.22 -36.52)"/><path class="cls-6" d="M320,161.61a10.13,10.13,0,0,1-.5-4,9.84,9.84,0,0,1,1-3.6,9.13,9.13,0,0,1,2.25-2.87,9.52,9.52,0,0,1,3.32-1.84l0,0a9.37,9.37,0,0,1,3.78-.44,9.51,9.51,0,0,1,6.47,3.36,10.24,10.24,0,0,1,1.94,3.54,10.13,10.13,0,0,1,.5,4,9.86,9.86,0,0,1-1,3.6,9.18,9.18,0,0,1-2.25,2.88,9.55,9.55,0,0,1-3.32,1.84l-.05,0a9.38,9.38,0,0,1-3.78.44,9.5,9.5,0,0,1-6.47-3.36A10.23,10.23,0,0,1,320,161.61Zm3.6-1.11a5.58,5.58,0,0,0,1.12,2,5.17,5.17,0,0,0,1.73,1.3,5.89,5.89,0,0,0,2.11.52,6.06,6.06,0,0,0,2.26-.3l.05,0a6.2,6.2,0,0,0,2-1.09,5.57,5.57,0,0,0,2.06-3.78,5.46,5.46,0,0,0-.25-2.29,5.56,5.56,0,0,0-1.13-2,5.17,5.17,0,0,0-1.73-1.28,5.86,5.86,0,0,0-2.11-.52,6.09,6.09,0,0,0-2.26.3l-.05,0a6.15,6.15,0,0,0-2,1.09,5.6,5.6,0,0,0-2.06,3.76A5.41,5.41,0,0,0,323.62,160.5Z" transform="translate(-36.22 -36.52)"/><path class="cls-6" d="M342,170.22l1.34,8.39a7.33,7.33,0,0,1-1,5.64,5.73,5.73,0,0,1-3.94,2.24h-.05a5.83,5.83,0,0,1-3.8-.51,6.39,6.39,0,0,1-2.51-2.52L326.23,189l-.75-4.72,5.24-4.87v-.05l-.5-3.12-5.87.94-.64-4Zm-7.62,9.55a3.4,3.4,0,0,0,1.07,2.18,2.43,2.43,0,0,0,2,.5h.05a2.38,2.38,0,0,0,1.83-1.15,3.76,3.76,0,0,0,.28-2.44l-.64-4-5.27.84Z" transform="translate(-36.22 -36.52)"/><path class="cls-6" d="M345,190.64V195L337.16,200l7.87,4.86v4.41l-18.58.05v-4l12.13,0-8-5.21v-.11l7.84-5.2-12,0v-4Z" transform="translate(-36.22 -36.52)"/><path class="cls-6" d="M343.62,221.51l-.59,3.72-19.73,4.91.67-4.22,4.38-1,1.24-7.76-3.85-2.33.66-4.11ZM332.14,224l6.34-1.49-5.56-3.39Z" transform="translate(-36.22 -36.52)"/><path class="cls-6" d="M335.58,240.11l1.66-5.4,3.6,1.11-4.52,14.72-3.6-1.11,1.66-5.41-14.16-4.35,1.2-3.91Z" transform="translate(-36.22 -36.52)"/><path class="cls-6" d="M334.64,254.42l-1.57,3.77-17.16-7.12,1.57-3.78Z" transform="translate(-36.22 -36.52)"/><path class="cls-6" d="M310,262.19a10.15,10.15,0,0,1,2.59-3.08,9.84,9.84,0,0,1,3.3-1.73,9.11,9.11,0,0,1,3.64-.31,9.53,9.53,0,0,1,3.61,1.18l0,0a9.4,9.4,0,0,1,2.89,2.47,9.51,9.51,0,0,1,1.94,7,10.75,10.75,0,0,1-3.86,6.92,9.86,9.86,0,0,1-3.3,1.73,9.16,9.16,0,0,1-3.64.31,9.56,9.56,0,0,1-3.61-1.18l0,0a9.39,9.39,0,0,1-2.89-2.47,9.51,9.51,0,0,1-1.94-7A10.24,10.24,0,0,1,310,262.19Zm3.26,1.88a5.58,5.58,0,0,0-.71,2.19,5.14,5.14,0,0,0,.23,2.15,5.88,5.88,0,0,0,1.05,1.9,6.1,6.1,0,0,0,1.76,1.45l0,0a6.2,6.2,0,0,0,2.17.74,5.57,5.57,0,0,0,4.17-1.06,5.45,5.45,0,0,0,1.5-1.74,5.54,5.54,0,0,0,.71-2.2,5.17,5.17,0,0,0-.23-2.14,5.9,5.9,0,0,0-1.05-1.9,6.06,6.06,0,0,0-1.76-1.45l0,0a6.18,6.18,0,0,0-2.17-.74,5.61,5.61,0,0,0-4.16,1.05A5.42,5.42,0,0,0,313.3,264.07Z" transform="translate(-36.22 -36.52)"/><path class="cls-6" d="M318.73,284.26l-2.34,3L302,286.93l9,7.11-2.51,3.16-14.56-11.54,2.16-2.72,14.84.29-9.26-7.34,2.51-3.16Z" transform="translate(-36.22 -36.52)"/><path class="cls-6" d="M92.81,269l4.29,5.84a11,11,0,0,1,1.8,3.63,9.44,9.44,0,0,1,.28,3.68A8.67,8.67,0,0,1,98,285.54a9.23,9.23,0,0,1-2.52,2.74l0,0a9.34,9.34,0,0,1-3.37,1.59,8.64,8.64,0,0,1-3.58.11,9.61,9.61,0,0,1-3.44-1.36,10.82,10.82,0,0,1-2.94-2.79L77.84,280ZM85.1,283.68a6.31,6.31,0,0,0,1.67,1.6,4.87,4.87,0,0,0,2,.75,5.39,5.39,0,0,0,2.09-.12,6,6,0,0,0,2.06-1l0,0a6.06,6.06,0,0,0,1.57-1.67,5.27,5.27,0,0,0,.76-2,5.07,5.07,0,0,0-.12-2.11,6.15,6.15,0,0,0-1-2.08l-1.87-2.54-9,6.63Z" transform="translate(-36.22 -36.52)"/><path class="cls-6" d="M105,284.75l2.77,3L94.13,300.33l-2.77-3Z" transform="translate(-36.22 -36.52)"/><path class="cls-6" d="M102.69,309a12.27,12.27,0,0,1-2.61-3.32,11,11,0,0,1-1.27-4.15l3.73-.54a12.1,12.1,0,0,0,.85,3,7,7,0,0,0,1.78,2.41,3.57,3.57,0,0,0,1.78,1,1.46,1.46,0,0,0,1.38-.49l0,0a1.61,1.61,0,0,0,.36-.62,1.47,1.47,0,0,0,0-.8,5.8,5.8,0,0,0-.5-1.16q-.37-.69-1-1.69a23.35,23.35,0,0,1-1.39-2.28,7.19,7.19,0,0,1-.75-2.08,4.24,4.24,0,0,1,.12-2,5.39,5.39,0,0,1,1.21-2l0,0a5.39,5.39,0,0,1,1.89-1.39,5.22,5.22,0,0,1,2.17-.42,6,6,0,0,1,2.29.52,8.23,8.23,0,0,1,2.22,1.46,11.14,11.14,0,0,1,2.39,3,10.88,10.88,0,0,1,1.17,3.4l-3.64.87a13.46,13.46,0,0,0-.92-2.63,6.25,6.25,0,0,0-1.45-2,2.9,2.9,0,0,0-1.64-.85,1.41,1.41,0,0,0-1.22.46l0,0a1.67,1.67,0,0,0-.39.7,1.55,1.55,0,0,0,.07.86,5.82,5.82,0,0,0,.58,1.2q.42.7,1.1,1.74a19,19,0,0,1,1.31,2.3,7,7,0,0,1,.64,2.07,4.26,4.26,0,0,1-.17,1.9,5.19,5.19,0,0,1-1.11,1.82l0,0a5.77,5.77,0,0,1-2,1.49,5.05,5.05,0,0,1-2.25.41,6.32,6.32,0,0,1-2.34-.6A9.29,9.29,0,0,1,102.69,309Z" transform="translate(-36.22 -36.52)"/><path class="cls-6" d="M122.21,300.95l6.25,4.31a8.94,8.94,0,0,1,2.2,2.08,6.35,6.35,0,0,1,1.09,2.35,5.74,5.74,0,0,1,0,2.47,6.77,6.77,0,0,1-1.08,2.43l0,0a6.54,6.54,0,0,1-2.09,2,5.82,5.82,0,0,1-2.48.77,7,7,0,0,1-2.67-.34,10.13,10.13,0,0,1-2.65-1.33L118.2,314,115,318.56l-3.37-2.32Zm.71,11.87a3.33,3.33,0,0,0,2.43.69,2.65,2.65,0,0,0,1.84-1.17l0,0a2.53,2.53,0,0,0,.46-2.23,3.76,3.76,0,0,0-1.59-2l-2.6-1.79L120.26,311Z" transform="translate(-36.22 -36.52)"/><path class="cls-6" d="M136,310.15l3.63,1.88-6.86,13.22,8.22,4.26-1.7,3.28-11.85-6.15Z" transform="translate(-36.22 -36.52)"/><path class="cls-6" d="M155.57,319.1l3.55,1.26,1.23,20.3-4-1.43-.2-4.5-7.4-2.63-3,3.36-3.93-1.4Zm.39,11.74-.31-6.5-4.34,4.85Z" transform="translate(-36.22 -36.52)"/><path class="cls-6" d="M171,335.44,166.23,323l4.69.93,2.9,8.18,5.87-6.44,4.56.9-9.17,9.58-1.44,7.26-4-.79Z" transform="translate(-36.22 -36.52)"/><path class="cls-6" d="M111.39,89.87l-4.47,3.46-2.31-3,12.17-9.42,2.31,3-4.47,3.46,9.06,11.71-3.23,2.5Z" transform="translate(-36.22 -36.52)"/><path class="cls-6" d="M120.33,78.78l3.44-2.2,10,15.65-3.44,2.2Z" transform="translate(-36.22 -36.52)"/><path class="cls-6" d="M128.63,73.41l4-1.91,7.8,5,1-9.19,4-1.91,8,16.75-3.64,1.75-5.25-10.93-1.28,9.42-.1,0-8.07-4.84,5.21,10.86-3.64,1.75Z" transform="translate(-36.22 -36.52)"/><path class="cls-6" d="M150.87,63.59l3.87-1.32,6,17.58-3.87,1.32Z" transform="translate(-36.22 -36.52)"/><path class="cls-6" d="M160.13,60.39l3.68-.82,11,9.28-2.48-11.17,3.94-.88,4,18.14-3.39.76-11.35-9.57,2.57,11.53-3.94.88Z" transform="translate(-36.22 -36.52)"/><path class="cls-6" d="M192.23,74.25a10.61,10.61,0,0,1-4-.46A9.16,9.16,0,0,1,185,72a9,9,0,0,1-2.19-2.89,10,10,0,0,1-1-3.77V65.3a9.5,9.5,0,0,1,5.26-9.21,9.85,9.85,0,0,1,3.84-1,13.79,13.79,0,0,1,2.28,0,11,11,0,0,1,1.93.37,8.94,8.94,0,0,1,1.69.69,12.26,12.26,0,0,1,1.55,1L196,60.42a10.46,10.46,0,0,0-1.11-.73,6.91,6.91,0,0,0-1.14-.51,6.44,6.44,0,0,0-1.25-.29,7.37,7.37,0,0,0-1.47,0,4.75,4.75,0,0,0-2,.6,5.64,5.64,0,0,0-1.61,1.36,5.72,5.72,0,0,0-1,1.91,6.08,6.08,0,0,0-.27,2.27V65a6.53,6.53,0,0,0,.56,2.32,5.59,5.59,0,0,0,1.29,1.8,5.32,5.32,0,0,0,1.85,1.12,5.69,5.69,0,0,0,2.29.29,6.43,6.43,0,0,0,3.77-1.37l-.17-2.67-4.11.27-.23-3.52,8.05-.52L200,70.8a13.65,13.65,0,0,1-3.27,2.3A11.22,11.22,0,0,1,192.23,74.25Z" transform="translate(-36.22 -36.52)"/></svg>