<svg xmlns="http://www.w3.org/2000/svg" viewBox="0 0 98 85.34"><defs><style>.cls-1{fill:#37474f;stroke:#fff;stroke-miterlimit:10;}.cls-2{fill:#4c5f69;}</style></defs><title>Asset 7</title><g id="Layer_2" data-name="Layer 2"><g id="Layer_1-2" data-name="Layer 1"><rect class="cls-1" x="0.5" y="0.5" width="32.33" height="84.34"/><rect class="cls-1" x="32.83" y="39.57" width="32.33" height="45.27"/><rect class="cls-1" x="65.17" y="22.03" width="32.33" height="62.82"/><rect class="cls-2" x="5.58" y="9.54" width="3.8" height="3.8"/><rect class="cls-2" x="14.77" y="9.54" width="3.8" height="3.8"/><rect class="cls-2" x="23.95" y="9.54" width="3.8" height="3.8"/><rect class="cls-2" x="5.58" y="18.29" width="3.8" height="3.8"/><rect class="cls-2" x="14.77" y="18.29" width="3.8" height="3.8"/><rect class="cls-2" x="23.95" y="18.29" width="3.8" height="3.8"/><rect class="cls-2" x="5.58" y="27.04" width="3.8" height="3.8"/><rect class="cls-2" x="14.77" y="27.04" width="3.8" height="3.8"/><rect class="cls-2" x="23.95" y="27.04" width="3.8" height="3.8"/><rect class="cls-2" x="5.58" y="35.79" width="3.8" height="3.8"/><rect class="cls-2" x="14.77" y="35.79" width="3.8" height="3.8"/><rect class="cls-2" x="23.95" y="35.79" width="3.8" height="3.8"/><rect class="cls-2" x="5.58" y="44.54" width="3.8" height="3.8"/><rect class="cls-2" x="14.77" y="44.54" width="3.8" height="3.8"/><rect class="cls-2" x="23.95" y="44.54" width="3.8" height="3.8"/><rect class="cls-2" x="37.92" y="49.46" width="3.8" height="3.8"/><rect class="cls-2" x="47.1" y="49.46" width="3.8" height="3.8"/><rect class="cls-2" x="56.28" y="49.46" width="3.8" height="3.8"/><rect class="cls-2" x="37.92" y="58.21" width="3.8" height="3.8"/><rect class="cls-2" x="47.1" y="58.21" width="3.8" height="3.8"/><rect class="cls-2" x="56.28" y="58.21" width="3.8" height="3.8"/><rect class="cls-2" x="37.92" y="66.95" width="3.8" height="3.8"/><rect class="cls-2" x="47.1" y="66.95" width="3.8" height="3.8"/><rect class="cls-2" x="56.28" y="66.95" width="3.8" height="3.8"/><rect class="cls-2" x="37.92" y="75.7" width="3.8" height="3.8"/><rect class="cls-2" x="47.1" y="75.7" width="3.8" height="3.8"/><rect class="cls-2" x="56.28" y="75.7" width="3.8" height="3.8"/><rect class="cls-2" x="5.58" y="53.28" width="3.8" height="3.8"/><rect class="cls-2" x="14.77" y="53.28" width="3.8" height="3.8"/><rect class="cls-2" x="23.95" y="53.28" width="3.8" height="3.8"/><rect class="cls-2" x="5.58" y="62.03" width="3.8" height="3.8"/><rect class="cls-2" x="14.77" y="62.03" width="3.8" height="3.8"/><rect class="cls-2" x="23.95" y="62.03" width="3.8" height="3.8"/><rect class="cls-2" x="5.58" y="70.78" width="3.8" height="3.8"/><rect class="cls-2" x="14.77" y="70.78" width="3.8" height="3.8"/><rect class="cls-2" x="23.95" y="70.78" width="3.8" height="3.8"/><rect class="cls-2" x="70.25" y="34.71" width="3.8" height="3.8"/><rect class="cls-2" x="79.43" y="34.71" width="3.8" height="3.8"/><rect class="cls-2" x="88.62" y="34.71" width="3.8" height="3.8"/><rect class="cls-2" x="70.25" y="43.46" width="3.8" height="3.8"/><rect class="cls-2" x="79.43" y="43.46" width="3.8" height="3.8"/><rect class="cls-2" x="88.62" y="43.46" width="3.8" height="3.8"/><rect class="cls-2" x="70.25" y="52.21" width="3.8" height="3.8"/><rect class="cls-2" x="79.43" y="52.21" width="3.8" height="3.8"/><rect class="cls-2" x="88.62" y="52.21" width="3.8" height="3.8"/><rect class="cls-2" x="70.25" y="60.95" width="3.8" height="3.8"/><rect class="cls-2" x="79.43" y="60.95" width="3.8" height="3.8"/><rect class="cls-2" x="88.62" y="60.95" width="3.8" height="3.8"/><rect class="cls-2" x="70.25" y="69.7" width="3.8" height="3.8"/><rect class="cls-2" x="79.43" y="69.7" width="3.8" height="3.8"/><rect class="cls-2" x="88.62" y="69.7" width="3.8" height="3.8"/><rect class="cls-2" x="70.25" y="78.45" width="3.8" height="3.8"/><rect class="cls-2" x="79.43" y="78.45" width="3.8" height="3.8"/><rect class="cls-2" x="88.62" y="78.45" width="3.8" height="3.8"/></g></g></svg>