<svg xmlns="http://www.w3.org/2000/svg" viewBox="0 0 75.15 85.34"><defs><style>.cls-1{opacity:0.6;}.cls-2{fill:#fff;stroke:#e28126;stroke-miterlimit:10;}.cls-3{fill:#e28126;}</style></defs><title>commercial_clicked</title><g id="Layer_2" data-name="Layer 2"><g id="Layer_1-2" data-name="Layer 1"><g class="cls-1"><rect class="cls-2" x="42.32" y="39.55" width="32.33" height="45.3"/><rect class="cls-3" x="46.52" y="47.81" width="4.1" height="4.1"/><rect class="cls-3" x="56.43" y="47.81" width="4.1" height="4.1"/><rect class="cls-3" x="66.35" y="47.81" width="4.1" height="4.1"/><rect class="cls-3" x="46.52" y="57.26" width="4.1" height="4.1"/><rect class="cls-3" x="56.43" y="57.26" width="4.1" height="4.1"/><rect class="cls-3" x="66.35" y="57.26" width="4.1" height="4.1"/><rect class="cls-3" x="46.52" y="66.7" width="4.1" height="4.1"/><rect class="cls-3" x="56.43" y="66.7" width="4.1" height="4.1"/><rect class="cls-3" x="66.35" y="66.7" width="4.1" height="4.1"/><rect class="cls-3" x="46.52" y="76.14" width="4.1" height="4.1"/><rect class="cls-3" x="56.43" y="76.14" width="4.1" height="4.1"/><rect class="cls-2" x="0.5" y="0.5" width="41.58" height="84.34"/><rect class="cls-3" x="4.89" y="7.37" width="8.8" height="8.8"/><rect class="cls-3" x="17.89" y="7.37" width="8.8" height="8.8"/><rect class="cls-3" x="29.89" y="7.37" width="8.8" height="8.8"/><rect class="cls-3" x="4.89" y="23.37" width="8.8" height="8.8"/><rect class="cls-3" x="17.89" y="23.37" width="8.8" height="8.8"/><rect class="cls-3" x="29.89" y="23.37" width="8.8" height="8.8"/><rect class="cls-3" x="4.89" y="39.37" width="8.8" height="8.8"/><rect class="cls-3" x="17.89" y="39.37" width="8.8" height="8.8"/><rect class="cls-3" x="29.89" y="39.37" width="8.8" height="8.8"/><rect class="cls-3" x="4.89" y="55.37" width="8.8" height="8.8"/><rect class="cls-3" x="17.89" y="55.37" width="8.8" height="8.8"/><rect class="cls-3" x="29.89" y="55.37" width="8.8" height="8.8"/><rect class="cls-3" x="4.89" y="71.37" width="8.8" height="8.8"/><rect class="cls-3" x="17.89" y="71.37" width="8.8" height="8.8"/><rect class="cls-3" x="29.89" y="71.37" width="8.8" height="8.8"/><rect class="cls-3" x="66.35" y="76.14" width="4.1" height="4.1"/></g></g></g></svg>