<svg xmlns="http://www.w3.org/2000/svg" viewBox="0 0 79.65 87.24"><defs><style>.cls-1{opacity:0.6;}.cls-2,.cls-4{fill:#e28126;}.cls-3{fill:#fff;}.cls-4{stroke:#fff;stroke-miterlimit:10;}</style></defs><title>Asset 20</title><g id="Layer_2" data-name="Layer 2"><g id="Layer_1-2" data-name="Layer 1"><g class="cls-1"><rect class="cls-2" x="42.82" y="37.87" width="35.33" height="47.87"/><path class="cls-3" d="M76.65,39.37V84.24H44.32V39.37H76.65m3-3H41.32V87.24H79.65V36.37Z"/><rect class="cls-3" x="48.52" y="47.81" width="4.1" height="4.1"/><rect class="cls-3" x="58.43" y="47.81" width="4.1" height="4.1"/><rect class="cls-3" x="68.35" y="47.81" width="4.1" height="4.1"/><rect class="cls-3" x="48.52" y="57.26" width="4.1" height="4.1"/><rect class="cls-3" x="58.43" y="57.26" width="4.1" height="4.1"/><rect class="cls-3" x="68.35" y="57.26" width="4.1" height="4.1"/><rect class="cls-3" x="48.52" y="66.7" width="4.1" height="4.1"/><rect class="cls-3" x="58.43" y="66.7" width="4.1" height="4.1"/><rect class="cls-3" x="68.35" y="66.7" width="4.1" height="4.1"/><rect class="cls-3" x="48.52" y="76.14" width="4.1" height="4.1"/><rect class="cls-3" x="58.43" y="76.14" width="4.1" height="4.1"/><rect class="cls-4" x="0.5" y="0.5" width="41.58" height="84.34"/><rect class="cls-3" x="4.89" y="7.37" width="8.8" height="8.8"/><rect class="cls-3" x="17.89" y="7.37" width="8.8" height="8.8"/><rect class="cls-3" x="29.89" y="7.37" width="8.8" height="8.8"/><rect class="cls-3" x="4.89" y="23.37" width="8.8" height="8.8"/><rect class="cls-3" x="17.89" y="23.37" width="8.8" height="8.8"/><rect class="cls-3" x="29.89" y="23.37" width="8.8" height="8.8"/><rect class="cls-3" x="4.89" y="39.37" width="8.8" height="8.8"/><rect class="cls-3" x="17.89" y="39.37" width="8.8" height="8.8"/><rect class="cls-3" x="29.89" y="39.37" width="8.8" height="8.8"/><rect class="cls-3" x="4.89" y="55.37" width="8.8" height="8.8"/><rect class="cls-3" x="17.89" y="55.37" width="8.8" height="8.8"/><rect class="cls-3" x="29.89" y="55.37" width="8.8" height="8.8"/><rect class="cls-3" x="4.89" y="71.37" width="8.8" height="8.8"/><rect class="cls-3" x="17.89" y="71.37" width="8.8" height="8.8"/><rect class="cls-3" x="29.89" y="71.37" width="8.8" height="8.8"/><rect class="cls-3" x="68.35" y="76.14" width="4.1" height="4.1"/></g></g></g></svg>