<svg xmlns="http://www.w3.org/2000/svg" viewBox="0 0 71.24 93.76"><defs><style>.cls-1{fill:#37474f;}</style></defs><title>Asset 9</title><g id="Layer_2" data-name="Layer 2"><g id="Layer_1-2" data-name="Layer 1"><path class="cls-1" d="M45.63,20.28h0a2.35,2.35,0,0,1-.86-3.2L54,1.17a2.35,2.35,0,0,1,3.2-.86h0A2.35,2.35,0,0,1,58,3.51L48.83,19.42C47.74,21.3,47.49,21.35,45.63,20.28Z"/><rect class="cls-1" x="53.9" y="2.03" width="4.68" height="28.98" rx="2.34" ry="2.34" transform="translate(15.79 -25.91) rotate(30)"/><path class="cls-1" d="M64.31,6.22h0a2.34,2.34,0,0,1,2.34,2.34V26.94a2.34,2.34,0,0,1-2.34,2.34H63.15A1.18,1.18,0,0,1,62,28.09V8.56a2.34,2.34,0,0,1,2.34-2.34Z" transform="translate(17.49 -29.78) rotate(30)"/><path class="cls-1" d="M63.56,23.83c-10.39,2.89-14.32.62-16.76-9.67-3.07,4.45-9.32,16.64-6.26,23L10.71,88.79a2.71,2.71,0,0,0,1,3.81l1.26.73a2.7,2.7,0,0,0,3.78-1.05l30-52C52.91,38.92,61.07,29.21,63.56,23.83Z"/><path class="cls-1" d="M33.38-4.89h.15a3.61,3.61,0,0,1,3.61,3.61V97.28A2.68,2.68,0,0,1,34.46,100h-1.9a2.79,2.79,0,0,1-2.79-2.79V-1.28a3.61,3.61,0,0,1,3.61-3.61Z" transform="translate(-19.29 23.09) rotate(-30)"/><path class="cls-1" d="M17.27,1.33h2.08A3.56,3.56,0,0,1,22.9,4.89V45.39A3.56,3.56,0,0,1,19.34,49h-1A11.19,11.19,0,0,1,7.13,37.77V11.46A10.13,10.13,0,0,1,17.27,1.33Z" transform="translate(-10.56 10.88) rotate(-30)"/></g></g></svg>