<svg xmlns="http://www.w3.org/2000/svg" viewBox="0 0 50.41 96.18"><defs><style>.cls-1{fill:#37474f;}.cls-2{fill:#fff;}</style></defs><title>Asset 8</title><g id="Layer_2" data-name="Layer 2"><g id="Layer_1-2" data-name="Layer 1"><path class="cls-1" d="M3.44,83.33c-14-22.5,20-40.08,9.33-47.08C26.27,38,17.1,65.17,26.11,64.83,39.77,63.33,0,19.33,16.27,0,11.6,26.14,58,46.24,49.32,75.56,42.52,98.51,16.29,104,3.44,83.33Z"/><path class="cls-2" d="M10.29,82.48c-15.18-20.06,9-30.51,6.31-40.43C22,46,14.44,71.5,28.14,70.38c20-4.54-18.2-41-13-59.71C19.6,34.83,55.66,54.38,42,80.47,38.07,88.09,20,95.29,10.29,82.48Z"/></g></g></svg>