<svg xmlns="http://www.w3.org/2000/svg" viewBox="0 0 99.5 31.42"><defs><style>.cls-1{fill:none;stroke:#37474f;stroke-linecap:round;stroke-miterlimit:10;stroke-width:5px;}</style></defs><title>Asset 13</title><g id="Layer_2" data-name="Layer 2"><g id="Layer_1-2" data-name="Layer 1"><path class="cls-1" d="M31.83,28.92H13.42c-6,0-10.92-5.76-10.92-12.79v-.84c0-7,4.91-12.79,10.92-12.79H50.25c6,0,10.92,5.76,10.92,12.79v.84a14.6,14.6,0,0,1-.76,4.69"/><path class="cls-1" d="M38.83,11.5a14.7,14.7,0,0,0-.49,3.79v.84c0,7,4.91,12.79,10.92,12.79H86.08c6,0,10.92-5.76,10.92-12.79v-.84c0-7-4.91-12.79-10.92-12.79H68.35"/></g></g></svg>