<svg xmlns="http://www.w3.org/2000/svg" viewBox="0 0 55.59 97.76"><defs><style>.cls-1{fill:#fff;opacity:0.6;}</style></defs><title>tactile_clicked</title><g id="Layer_2" data-name="Layer 2"><g id="Layer_1-2" data-name="Layer 1"><path class="cls-1" d="M27.16,91.27c.92-5.87-4.43-19.1-10.82-22.65C8.95,64.51-2,48.87.32,47.39c4.93-3.15,9.31,8.36,16.25,9.82,2.64.56,2-4.37,2.19-10.59.46-13.15-13.24-36.07-8-38.26,4.71-2,15,27.39,15,31C29.08,38.76,23.6,0,28.94,0c6.22,0,5.16,35.75,5.16,39.36,2.37,2,3.46-31.55,7.85-31.55,5.75,0-.68,30.54.82,32.74,2.6,3.38,8.77-24.38,12.05-22.33s-5.41,23-5.82,28.35c-.67,8.67-2.21,17.27-4.58,23.84-1.38,3.83-1.25,15.75,2.09,20.87C49.46,95.79,25.29,103.27,27.16,91.27Z"/></g></g></svg>