<svg xmlns="http://www.w3.org/2000/svg" viewBox="0 0 88.09 48.02"><defs><style>.cls-1{fill:#f3cda8;}.cls-1,.cls-2{opacity:0.6;}.cls-2{fill:#fff;}</style></defs><title>transport_clicked</title><g id="Layer_2" data-name="Layer 2"><g id="Layer_1-2" data-name="Layer 1"><path class="cls-1" d="M19,13c-1.77.57-4-.81-4,1.59a4,4,0,0,0,.36,2.13C18,14.67,18,14.67,19,13Z"/><path class="cls-2" d="M12.24,41.5C-1.45,41.47-4,24.84,6.37,21.45,18.7,17.43,19.9,10.38,27,3.34,31.36-1,65.67-1.09,71.81,3,81.06,9.16,78.53,15.28,85,19.67c3.67,2.5,5,21.58-1,22S12.24,41.5,12.24,41.5Z"/><path class="cls-2" d="M24.08,41.59a5.9,5.9,0,0,1,0,.6,5.83,5.83,0,1,1-11.67,0,5.89,5.89,0,0,1,0-.68"/><path class="cls-2" d="M76.84,41.87q0,.16,0,.32a5.83,5.83,0,0,1-11.67,0q0-.16,0-.32"/><path class="cls-1" d="M0,30.67c2,2,7.1,2.72,8.81,2.67.9.68,1.48,4.55,0,4.67a11.22,11.22,0,0,1-7.52-2.52A11.6,11.6,0,0,1,0,30.67Z"/><path class="cls-1" d="M36,20.17c.7-.48,1.92-3.69,3.67-3.13s4-.81,4,1.59c0,2-.67,3-1.5,3s-3.33.13-3.83-1.5S36,20.17,36,20.17Z"/><path class="cls-1" d="M15.07,17c.11,1.49,9,4.72,10.78,4s9.79-11.39,10-12.14c-2.77-.56-9.9-1-11.17-2.91C22.05,9.17,17.06,15.88,15.07,17Z"/></g></g></svg>