<svg xmlns="http://www.w3.org/2000/svg" viewBox="0 0 94.91 83.25"><defs><style>.cls-1{fill:#37474f;}.cls-2{fill:#fff;}.cls-3{fill:none;stroke:#4c5f69;stroke-linecap:round;stroke-miterlimit:10;stroke-width:3px;}.cls-4{fill:#4c5f69;}</style></defs><title>Asset 11</title><g id="Layer_2" data-name="Layer 2"><g id="Layer_1-2" data-name="Layer 1"><rect class="cls-1" x="5.29" width="84.33" height="56.58" rx="5.08" ry="5.08"/><path class="cls-1" d="M88.38,83.25H6.53A6.55,6.55,0,0,1,0,76.72s2.94-28.8,6.53-28.8H88.38c3.59,0,6.53,28.8,6.53,28.8A6.55,6.55,0,0,1,88.38,83.25Z"/><rect class="cls-2" x="11.36" y="5.25" width="71.45" height="39.33"/><line class="cls-3" x1="10.8" y1="51.94" x2="7.93" y2="68.16"/><line class="cls-3" x1="28.89" y1="51.88" x2="27.67" y2="68.22"/><line class="cls-3" x1="46.97" y1="51.87" x2="47.41" y2="68.27"/><line class="cls-3" x1="65.06" y1="51.91" x2="67.17" y2="68.32"/><line class="cls-3" x1="83.15" y1="51.98" x2="86.95" y2="68.38"/><line class="cls-3" x1="7.93" y1="68.16" x2="86.95" y2="68.38"/><line class="cls-3" x1="9.22" y1="62.51" x2="85.64" y2="62.73"/><line class="cls-3" x1="10.29" y1="56.86" x2="84.34" y2="57.09"/><line class="cls-3" x1="11.3" y1="50.92" x2="82.87" y2="51.25"/><rect class="cls-4" x="31.79" y="72.92" width="31.67" height="8.75" rx="2.15" ry="2.15"/></g></g></svg>